<svg width="21" height="18" viewBox="0 0 21 18" fill="none" xmlns="http://www.w3.org/2000/svg">
<path d="M18.375 0H1.875C1.37772 0 0.900805 0.197544 0.549175 0.549175C0.197544 0.900805 0 1.37772 0 1.875V15.375C0 15.8723 0.197544 16.3492 0.549175 16.7008C0.900805 17.0525 1.37772 17.25 1.875 17.25H18.375C18.8723 17.25 19.3492 17.0525 19.7008 16.7008C20.0525 16.3492 20.25 15.8723 20.25 15.375V1.875C20.25 1.37772 20.0525 0.900805 19.7008 0.549175C19.3492 0.197544 18.8723 0 18.375 0ZM18 15H2.25V2.25H18V15ZM5.25 4.875C5.25 4.57663 5.36853 4.29048 5.5795 4.0795C5.79048 3.86853 6.07663 3.75 6.375 3.75C6.67337 3.75 6.95952 3.86853 7.1705 4.0795C7.38147 4.29048 7.5 4.57663 7.5 4.875C7.5 5.57119 7.77656 6.23887 8.26884 6.73116C8.76113 7.22344 9.42881 7.5 10.125 7.5C10.8212 7.5 11.4889 7.22344 11.9812 6.73116C12.4734 6.23887 12.75 5.57119 12.75 4.875C12.75 4.57663 12.8685 4.29048 13.0795 4.0795C13.2905 3.86853 13.5766 3.75 13.875 3.75C14.1734 3.75 14.4595 3.86853 14.6705 4.0795C14.8815 4.29048 15 4.57663 15 4.875C15 6.16793 14.4864 7.40791 13.5721 8.32215C12.6579 9.23639 11.4179 9.75 10.125 9.75C8.83207 9.75 7.59209 9.23639 6.67785 8.32215C5.76361 7.40791 5.25 6.16793 5.25 4.875Z" fill="white"/>
</svg>
