<svg width="19" height="19" viewBox="0 0 19 19" fill="none" xmlns="http://www.w3.org/2000/svg">
<path d="M10.5015 17.625C10.5015 17.9234 10.62 18.2095 10.831 18.4205C11.0419 18.6315 11.3281 18.75 11.6265 18.75H16.8765C17.3737 18.75 17.8507 18.5525 18.2023 18.2008C18.5539 17.8492 18.7515 17.3723 18.7515 16.875V1.875C18.7515 1.37772 18.5539 0.900805 18.2023 0.549175C17.8507 0.197544 17.3737 0 16.8765 0H11.6265C11.3281 0 11.0419 0.118526 10.831 0.329505C10.62 0.540483 10.5015 0.826631 10.5015 1.125C10.5015 1.42337 10.62 1.70952 10.831 1.9205C11.0419 2.13147 11.3281 2.25 11.6265 2.25H16.5015V16.5H11.6265C11.3281 16.5 11.0419 16.6185 10.831 16.8295C10.62 17.0405 10.5015 17.3266 10.5015 17.625ZM0.330526 8.57906L4.08053 4.82906C4.29187 4.61772 4.57852 4.49899 4.8774 4.49899C5.17629 4.49899 5.46293 4.61772 5.67428 4.82906C5.88562 5.04041 6.00435 5.32705 6.00435 5.62594C6.00435 5.92482 5.88562 6.21147 5.67428 6.42281L3.84521 8.25H11.6265C11.9248 8.25 12.211 8.36853 12.422 8.5795C12.6329 8.79048 12.7515 9.07663 12.7515 9.375C12.7515 9.67337 12.6329 9.95952 12.422 10.1705C12.211 10.3815 11.9248 10.5 11.6265 10.5H3.84521L5.67521 12.3291C5.88656 12.5404 6.00529 12.8271 6.00529 13.1259C6.00529 13.4248 5.88656 13.7115 5.67521 13.9228C5.46387 14.1342 5.17723 14.2529 4.87834 14.2529C4.57945 14.2529 4.29281 14.1342 4.08146 13.9228L0.331465 10.1728C0.226524 10.0684 0.143234 9.94421 0.0863724 9.8075C0.0295105 9.67079 0.000196457 9.5242 0.000108719 9.37613C2.09808e-05 9.22807 0.0291653 9.08144 0.085865 8.94466C0.142565 8.80788 0.225708 8.68364 0.330526 8.57906Z" fill="#ED1010"/>
</svg>
